<svg width="24" height="24" viewBox="0 0 24 24" fill="none" xmlns="http://www.w3.org/2000/svg">
<path d="M19.5235 1H4.50154C2.02316 1 0 3.02316 0 5.50154V18.0704C0 20.5488 2.02316 22.572 4.50154 22.572H19.4982C21.9766 22.572 23.9998 20.5488 23.9998 18.0704V5.52683C24.0251 3.02316 22.0019 1 19.5235 1ZM18.259 4.99575C19.1695 4.99575 19.9029 5.72914 19.9029 6.63956C19.9029 7.54999 19.1695 8.28338 18.259 8.28338C17.3486 8.28338 16.6152 7.54999 16.6152 6.63956C16.6152 5.72914 17.3486 4.99575 18.259 4.99575ZM19.5235 20.4224H4.50154C3.21177 20.4224 2.1749 19.3855 2.1749 18.0957V15.4909L8.32026 8.46041C8.49728 8.25809 8.80076 8.25809 8.95249 8.46041L12.7206 12.7849C12.7712 12.8608 12.7965 12.9619 12.7965 13.0378L12.316 15.2633C12.2907 15.415 12.493 15.5162 12.5942 15.415L16.3876 11.2423C16.5141 11.1158 16.7164 11.1158 16.8175 11.2423L21.8502 16.7807V18.0704C21.8502 19.3602 20.788 20.4224 19.5235 20.4224Z" fill="url(#paint0_linear)"/>
<defs>
<linearGradient id="paint0_linear" x1="12" y1="1" x2="7.76876" y2="21.7074" gradientUnits="userSpaceOnUse">
<stop stop-color="#BEA988"/>
<stop offset="1" stop-color="#7E7165"/>
</linearGradient>
</defs>
</svg>
