<svg width="24" height="24" viewBox="0 0 24 24" fill="none" xmlns="http://www.w3.org/2000/svg">
<path d="M10.5367 0.00167781V0.000603646C11.3472 -0.0122491 12.1119 0.180166 12.8321 0.57556C12.8321 0.57556 11.8469 4.21878 12.2918 4.30976C12.7367 4.40074 13.2728 1.09272 13.2728 1.09272C14.6503 1.244 15.2812 1.64826 15.6641 2.13693C16.1114 2.67813 16.0673 2.82213 15.7126 3.15667C15.6436 3.2184 15.5764 3.27974 15.5105 3.34053C15.5099 3.34327 15.5096 3.34319 15.5088 3.34319C14.7737 4.02212 14.237 4.66076 13.9804 5.64883C13.5608 5.58099 12.8552 5.49934 11.8309 5.49934C10.8811 5.49856 10.2068 5.56673 9.77898 5.63006C9.58126 4.41089 9.08893 3.23729 8.18732 2.12764H8.18788C8.18615 2.12585 8.18477 2.12433 8.18338 2.1228C8.18208 2.12137 8.18077 2.11992 8.17916 2.11825C8.00903 1.90948 7.8235 1.70313 7.62355 1.499C7.27765 1.03199 7.54252 0.901403 8.58443 0.398013C9.26211 0.143865 9.91304 0.011544 10.5367 0.00167781Z" fill="url(#paint0_linear)"/>
<path d="M9.51862 6.03678C9.93041 5.96548 10.6793 5.87481 11.7983 5.87481C12.9901 5.87579 13.7642 5.98157 14.1574 6.05501C14.2094 6.06371 14.259 6.08222 14.3033 6.10946C14.3477 6.13671 14.3859 6.17216 14.4158 6.21371C14.4457 6.25525 14.4666 6.30208 14.4773 6.35145C14.4881 6.40081 14.4884 6.45173 14.4783 6.50121C14.4682 6.55069 14.4478 6.59775 14.4185 6.63963C14.3891 6.68152 14.3513 6.71739 14.3073 6.74514C14.2633 6.7729 14.2139 6.79197 14.1621 6.80126C14.1102 6.81055 14.057 6.80986 14.0054 6.79924C13.6633 6.73535 12.9407 6.63311 11.7977 6.63311C10.7245 6.63223 10.0238 6.72011 9.66024 6.7831C9.55674 6.80104 9.45001 6.77894 9.36355 6.72166C9.27708 6.66437 9.21796 6.57661 9.19918 6.47764C9.1804 6.37868 9.2035 6.27664 9.26341 6.19397C9.32332 6.11129 9.41512 6.05474 9.51862 6.03678Z" fill="url(#paint1_linear)"/>
<path d="M9.40641 7.08985C10.0078 7.03026 11.0831 6.95809 11.8424 6.95809C12.6071 6.9587 13.6901 7.0333 14.2909 7.09402C17.9831 8.31511 20.6842 12.2277 20.6842 16.866C20.6842 22.4811 16.7258 24 11.8424 24C6.95893 24 3 22.4811 3 16.866C3 12.2223 5.70755 8.30606 9.40641 7.08985Z" fill="url(#paint2_linear)"/>
<defs>
<linearGradient id="paint0_linear" x1="11.8421" y1="2.04572e-07" x2="5.08108" y2="21.9141" gradientUnits="userSpaceOnUse">
<stop stop-color="#BEA988"/>
<stop offset="1" stop-color="#7E7165"/>
</linearGradient>
<linearGradient id="paint1_linear" x1="11.8421" y1="2.04572e-07" x2="5.08108" y2="21.9141" gradientUnits="userSpaceOnUse">
<stop stop-color="#BEA988"/>
<stop offset="1" stop-color="#7E7165"/>
</linearGradient>
<linearGradient id="paint2_linear" x1="11.8421" y1="2.04572e-07" x2="5.08108" y2="21.9141" gradientUnits="userSpaceOnUse">
<stop stop-color="#BEA988"/>
<stop offset="1" stop-color="#7E7165"/>
</linearGradient>
</defs>
</svg>
