<svg width="132" height="66" viewBox="0 0 132 66" fill="none" xmlns="http://www.w3.org/2000/svg">
<g filter="url(#filter0_i)">
<path fill-rule="evenodd" clip-rule="evenodd" d="M99 1C81.3269 1 67 15.3269 67 33C67 50.6731 81.3269 65 99 65C116.673 65 131 50.6731 131 33C131 15.3269 116.673 1 99 1ZM98.9999 4.04764C83.01 4.04764 70.0476 17.0101 70.0476 33C70.0476 48.99 83.01 61.9524 98.9999 61.9524C114.99 61.9524 127.952 48.99 127.952 33C127.952 17.0101 114.99 4.04764 98.9999 4.04764Z" fill="#E8AD3C"/>
</g>
<path d="M99 0.5C81.0507 0.5 66.5 15.0507 66.5 33C66.5 50.9493 81.0507 65.5 99 65.5C116.949 65.5 131.5 50.9493 131.5 33C131.5 15.0507 116.949 0.5 99 0.5ZM70.5476 33C70.5476 17.2862 83.2861 4.54764 98.9999 4.54764C114.714 4.54764 127.452 17.2862 127.452 33C127.452 48.7138 114.714 61.4524 98.9999 61.4524C83.2861 61.4524 70.5476 48.7138 70.5476 33Z" stroke="#E8AD3C"/>
<g filter="url(#filter1_i)">
<path fill-rule="evenodd" clip-rule="evenodd" d="M33 1C15.3269 1 1 15.3269 1 33C1 50.6731 15.3269 65 33 65C50.6731 65 65 50.6731 65 33C65 15.3269 50.6731 1 33 1ZM32.9999 4.04764C17.01 4.04764 4.04755 17.0101 4.04755 33C4.04755 48.99 17.01 61.9524 32.9999 61.9524C48.9899 61.9524 61.9523 48.99 61.9523 33C61.9523 17.0101 48.9899 4.04764 32.9999 4.04764Z" fill="#5F5C58"/>
</g>
<path d="M33 0.5C15.0507 0.5 0.5 15.0507 0.5 33C0.5 50.9493 15.0507 65.5 33 65.5C50.9493 65.5 65.5 50.9493 65.5 33C65.5 15.0507 50.9493 0.5 33 0.5ZM4.54755 33C4.54755 17.2862 17.2861 4.54764 32.9999 4.54764C48.7138 4.54764 61.4523 17.2862 61.4523 33C61.4523 48.7138 48.7138 61.4524 32.9999 61.4524C17.2861 61.4524 4.54755 48.7138 4.54755 33Z" stroke="#7E7165"/>
<defs>
<filter id="filter0_i" x="66" y="0" width="66" height="66" filterUnits="userSpaceOnUse" color-interpolation-filters="sRGB">
<feFlood flood-opacity="0" result="BackgroundImageFix"/>
<feBlend mode="normal" in="SourceGraphic" in2="BackgroundImageFix" result="shape"/>
<feColorMatrix in="SourceAlpha" type="matrix" values="0 0 0 0 0 0 0 0 0 0 0 0 0 0 0 0 0 0 127 0" result="hardAlpha"/>
<feOffset/>
<feGaussianBlur stdDeviation="2.5"/>
<feComposite in2="hardAlpha" operator="arithmetic" k2="-1" k3="1"/>
<feColorMatrix type="matrix" values="0 0 0 0 0.204002 0 0 0 0 0.204002 0 0 0 0 0.204002 0 0 0 1 0"/>
<feBlend mode="normal" in2="shape" result="effect1_innerShadow"/>
</filter>
<filter id="filter1_i" x="0" y="0" width="66" height="66" filterUnits="userSpaceOnUse" color-interpolation-filters="sRGB">
<feFlood flood-opacity="0" result="BackgroundImageFix"/>
<feBlend mode="normal" in="SourceGraphic" in2="BackgroundImageFix" result="shape"/>
<feColorMatrix in="SourceAlpha" type="matrix" values="0 0 0 0 0 0 0 0 0 0 0 0 0 0 0 0 0 0 127 0" result="hardAlpha"/>
<feOffset/>
<feGaussianBlur stdDeviation="2.5"/>
<feComposite in2="hardAlpha" operator="arithmetic" k2="-1" k3="1"/>
<feColorMatrix type="matrix" values="0 0 0 0 0.204002 0 0 0 0 0.204002 0 0 0 0 0.204002 0 0 0 1 0"/>
<feBlend mode="normal" in2="shape" result="effect1_innerShadow"/>
</filter>
</defs>
</svg>
